<mxfile host="app.diagrams.net" modified="2024-06-05T01:57:55.310Z" agent="Mozilla/5.0 (Windows NT 10.0; Win64; x64) AppleWebKit/537.36 (KHTML, like Gecko) Chrome/125.0.0.0 Safari/537.36" etag="LAJduEL_a0yo36ScFwwv" version="24.4.9" type="device">
  <diagram name="Halaman-1" id="Becze33CYcbpXXtqgKFk">
    <mxGraphModel dx="3217" dy="2401" grid="1" gridSize="10" guides="1" tooltips="1" connect="1" arrows="1" fold="1" page="1" pageScale="1" pageWidth="827" pageHeight="1169" math="0" shadow="0">
      <root>
        <mxCell id="0" />
        <mxCell id="1" parent="0" />
        <mxCell id="c9S6Pdu7FSoXvYtG5_ky-173" style="rounded=0;orthogonalLoop=1;jettySize=auto;html=1;exitX=0.5;exitY=0;exitDx=0;exitDy=0;entryX=0;entryY=0.5;entryDx=0;entryDy=0;edgeStyle=orthogonalEdgeStyle;" parent="1" source="c9S6Pdu7FSoXvYtG5_ky-1" target="c9S6Pdu7FSoXvYtG5_ky-171" edge="1">
          <mxGeometry relative="1" as="geometry" />
        </mxCell>
        <mxCell id="c9S6Pdu7FSoXvYtG5_ky-220" value="1" style="edgeLabel;html=1;align=center;verticalAlign=middle;resizable=0;points=[];fontSize=15;" parent="c9S6Pdu7FSoXvYtG5_ky-173" vertex="1" connectable="0">
          <mxGeometry x="0.911" relative="1" as="geometry">
            <mxPoint x="8" as="offset" />
          </mxGeometry>
        </mxCell>
        <mxCell id="c9S6Pdu7FSoXvYtG5_ky-180" style="rounded=0;orthogonalLoop=1;jettySize=auto;html=1;exitX=0;exitY=1;exitDx=0;exitDy=0;entryX=0.5;entryY=0;entryDx=0;entryDy=0;edgeStyle=orthogonalEdgeStyle;elbow=vertical;curved=1;" parent="1" source="c9S6Pdu7FSoXvYtG5_ky-1" target="c9S6Pdu7FSoXvYtG5_ky-179" edge="1">
          <mxGeometry relative="1" as="geometry" />
        </mxCell>
        <mxCell id="c9S6Pdu7FSoXvYtG5_ky-238" value="1" style="edgeLabel;html=1;align=center;verticalAlign=middle;resizable=0;points=[];fontSize=15;" parent="c9S6Pdu7FSoXvYtG5_ky-180" vertex="1" connectable="0">
          <mxGeometry x="0.8164" y="6" relative="1" as="geometry">
            <mxPoint as="offset" />
          </mxGeometry>
        </mxCell>
        <mxCell id="c9S6Pdu7FSoXvYtG5_ky-202" style="edgeStyle=orthogonalEdgeStyle;rounded=0;orthogonalLoop=1;jettySize=auto;html=1;exitX=0.75;exitY=0;exitDx=0;exitDy=0;entryX=0;entryY=0.5;entryDx=0;entryDy=0;" parent="1" source="c9S6Pdu7FSoXvYtG5_ky-1" target="c9S6Pdu7FSoXvYtG5_ky-200" edge="1">
          <mxGeometry relative="1" as="geometry">
            <mxPoint x="1040" y="120" as="targetPoint" />
            <Array as="points">
              <mxPoint x="504" y="120" />
            </Array>
          </mxGeometry>
        </mxCell>
        <mxCell id="c9S6Pdu7FSoXvYtG5_ky-222" value="1" style="edgeLabel;html=1;align=center;verticalAlign=middle;resizable=0;points=[];fontSize=15;" parent="c9S6Pdu7FSoXvYtG5_ky-202" vertex="1" connectable="0">
          <mxGeometry x="0.8572" y="-1" relative="1" as="geometry">
            <mxPoint x="17" as="offset" />
          </mxGeometry>
        </mxCell>
        <mxCell id="c9S6Pdu7FSoXvYtG5_ky-1" value="users" style="rounded=0;whiteSpace=wrap;html=1;" parent="1" vertex="1">
          <mxGeometry x="414" y="210" width="120" height="60" as="geometry" />
        </mxCell>
        <mxCell id="c9S6Pdu7FSoXvYtG5_ky-2" value="id_user" style="ellipse;whiteSpace=wrap;html=1;" parent="1" vertex="1">
          <mxGeometry x="284" y="130" width="120" height="40" as="geometry" />
        </mxCell>
        <mxCell id="c9S6Pdu7FSoXvYtG5_ky-3" value="role" style="ellipse;whiteSpace=wrap;html=1;" parent="1" vertex="1">
          <mxGeometry x="230" y="180" width="120" height="40" as="geometry" />
        </mxCell>
        <mxCell id="c9S6Pdu7FSoXvYtG5_ky-4" value="email" style="ellipse;whiteSpace=wrap;html=1;" parent="1" vertex="1">
          <mxGeometry x="220" y="240" width="120" height="40" as="geometry" />
        </mxCell>
        <mxCell id="c9S6Pdu7FSoXvYtG5_ky-5" value="password" style="ellipse;whiteSpace=wrap;html=1;" parent="1" vertex="1">
          <mxGeometry x="420" y="320" width="120" height="40" as="geometry" />
        </mxCell>
        <mxCell id="c9S6Pdu7FSoXvYtG5_ky-6" value="username" style="ellipse;whiteSpace=wrap;html=1;" parent="1" vertex="1">
          <mxGeometry x="550" y="330" width="120" height="40" as="geometry" />
        </mxCell>
        <mxCell id="c9S6Pdu7FSoXvYtG5_ky-7" value="name&lt;span style=&quot;color: rgba(0, 0, 0, 0); font-family: monospace; font-size: 0px; text-align: start; text-wrap: nowrap;&quot;&gt;%3CmxGraphModel%3E%3Croot%3E%3CmxCell%20id%3D%220%22%2F%3E%3CmxCell%20id%3D%221%22%20parent%3D%220%22%2F%3E%3CmxCell%20id%3D%222%22%20value%3D%22username%22%20style%3D%22ellipse%3BwhiteSpace%3Dwrap%3Bhtml%3D1%3B%22%20vertex%3D%221%22%20parent%3D%221%22%3E%3CmxGeometry%20x%3D%22520%22%20y%3D%22320%22%20width%3D%22120%22%20height%3D%2240%22%20as%3D%22geometry%22%2F%3E%3C%2FmxCell%3E%3C%2Froot%3E%3C%2FmxGraphModel%3E&lt;/span&gt;" style="ellipse;whiteSpace=wrap;html=1;" parent="1" vertex="1">
          <mxGeometry x="600" y="270" width="120" height="40" as="geometry" />
        </mxCell>
        <mxCell id="c9S6Pdu7FSoXvYtG5_ky-8" value="phone" style="ellipse;whiteSpace=wrap;html=1;" parent="1" vertex="1">
          <mxGeometry x="630" y="200" width="120" height="40" as="geometry" />
        </mxCell>
        <mxCell id="c9S6Pdu7FSoXvYtG5_ky-9" value="" style="endArrow=none;html=1;rounded=0;exitX=1;exitY=0.5;exitDx=0;exitDy=0;entryX=0.344;entryY=0.014;entryDx=0;entryDy=0;entryPerimeter=0;" parent="1" source="c9S6Pdu7FSoXvYtG5_ky-2" target="c9S6Pdu7FSoXvYtG5_ky-1" edge="1">
          <mxGeometry width="50" height="50" relative="1" as="geometry">
            <mxPoint x="500" y="320" as="sourcePoint" />
            <mxPoint x="550" y="270" as="targetPoint" />
          </mxGeometry>
        </mxCell>
        <mxCell id="c9S6Pdu7FSoXvYtG5_ky-10" value="" style="endArrow=none;html=1;rounded=0;exitX=1;exitY=0.5;exitDx=0;exitDy=0;entryX=0;entryY=0;entryDx=0;entryDy=0;" parent="1" source="c9S6Pdu7FSoXvYtG5_ky-3" target="c9S6Pdu7FSoXvYtG5_ky-1" edge="1">
          <mxGeometry width="50" height="50" relative="1" as="geometry">
            <mxPoint x="410" y="330" as="sourcePoint" />
            <mxPoint x="460" y="280" as="targetPoint" />
          </mxGeometry>
        </mxCell>
        <mxCell id="c9S6Pdu7FSoXvYtG5_ky-11" value="" style="endArrow=none;html=1;rounded=0;exitX=1;exitY=0.5;exitDx=0;exitDy=0;entryX=0;entryY=0.5;entryDx=0;entryDy=0;" parent="1" source="c9S6Pdu7FSoXvYtG5_ky-4" target="c9S6Pdu7FSoXvYtG5_ky-1" edge="1">
          <mxGeometry width="50" height="50" relative="1" as="geometry">
            <mxPoint x="370" y="300" as="sourcePoint" />
            <mxPoint x="410" y="240" as="targetPoint" />
          </mxGeometry>
        </mxCell>
        <mxCell id="c9S6Pdu7FSoXvYtG5_ky-12" value="" style="endArrow=none;html=1;rounded=0;exitX=0.5;exitY=0;exitDx=0;exitDy=0;entryX=0.5;entryY=1;entryDx=0;entryDy=0;" parent="1" source="c9S6Pdu7FSoXvYtG5_ky-5" target="c9S6Pdu7FSoXvYtG5_ky-1" edge="1">
          <mxGeometry width="50" height="50" relative="1" as="geometry">
            <mxPoint x="364" y="340" as="sourcePoint" />
            <mxPoint x="438" y="281" as="targetPoint" />
          </mxGeometry>
        </mxCell>
        <mxCell id="c9S6Pdu7FSoXvYtG5_ky-13" value="" style="endArrow=none;html=1;rounded=0;exitX=0;exitY=0;exitDx=0;exitDy=0;entryX=0.75;entryY=1;entryDx=0;entryDy=0;" parent="1" source="c9S6Pdu7FSoXvYtG5_ky-6" target="c9S6Pdu7FSoXvYtG5_ky-1" edge="1">
          <mxGeometry width="50" height="50" relative="1" as="geometry">
            <mxPoint x="490" y="380" as="sourcePoint" />
            <mxPoint x="484" y="280" as="targetPoint" />
          </mxGeometry>
        </mxCell>
        <mxCell id="c9S6Pdu7FSoXvYtG5_ky-14" value="" style="endArrow=none;html=1;rounded=0;exitX=0;exitY=0.5;exitDx=0;exitDy=0;entryX=1;entryY=0.75;entryDx=0;entryDy=0;" parent="1" source="c9S6Pdu7FSoXvYtG5_ky-7" target="c9S6Pdu7FSoXvYtG5_ky-1" edge="1">
          <mxGeometry width="50" height="50" relative="1" as="geometry">
            <mxPoint x="559" y="353" as="sourcePoint" />
            <mxPoint x="514" y="280" as="targetPoint" />
          </mxGeometry>
        </mxCell>
        <mxCell id="c9S6Pdu7FSoXvYtG5_ky-15" value="" style="endArrow=none;html=1;rounded=0;entryX=1;entryY=0.25;entryDx=0;entryDy=0;" parent="1" source="c9S6Pdu7FSoXvYtG5_ky-8" target="c9S6Pdu7FSoXvYtG5_ky-1" edge="1">
          <mxGeometry width="50" height="50" relative="1" as="geometry">
            <mxPoint x="610" y="300" as="sourcePoint" />
            <mxPoint x="544" y="265" as="targetPoint" />
          </mxGeometry>
        </mxCell>
        <mxCell id="c9S6Pdu7FSoXvYtG5_ky-174" style="edgeStyle=orthogonalEdgeStyle;rounded=0;orthogonalLoop=1;jettySize=auto;html=1;exitX=0.5;exitY=0;exitDx=0;exitDy=0;entryX=1;entryY=0.5;entryDx=0;entryDy=0;shape=link;" parent="1" source="c9S6Pdu7FSoXvYtG5_ky-16" target="c9S6Pdu7FSoXvYtG5_ky-171" edge="1">
          <mxGeometry relative="1" as="geometry" />
        </mxCell>
        <mxCell id="c9S6Pdu7FSoXvYtG5_ky-221" value="M" style="edgeLabel;html=1;align=center;verticalAlign=middle;resizable=0;points=[];fontSize=15;" parent="c9S6Pdu7FSoXvYtG5_ky-174" vertex="1" connectable="0">
          <mxGeometry x="0.8118" relative="1" as="geometry">
            <mxPoint x="-17" as="offset" />
          </mxGeometry>
        </mxCell>
        <mxCell id="c9S6Pdu7FSoXvYtG5_ky-218" style="edgeStyle=orthogonalEdgeStyle;rounded=0;orthogonalLoop=1;jettySize=auto;html=1;exitX=0.75;exitY=0;exitDx=0;exitDy=0;entryX=1;entryY=0.5;entryDx=0;entryDy=0;" parent="1" source="c9S6Pdu7FSoXvYtG5_ky-16" target="c9S6Pdu7FSoXvYtG5_ky-217" edge="1">
          <mxGeometry relative="1" as="geometry">
            <Array as="points">
              <mxPoint x="1418" y="-210" />
              <mxPoint x="2100" y="-210" />
              <mxPoint x="2100" y="1530" />
            </Array>
          </mxGeometry>
        </mxCell>
        <mxCell id="c9S6Pdu7FSoXvYtG5_ky-235" value="1" style="edgeLabel;html=1;align=center;verticalAlign=middle;resizable=0;points=[];fontSize=14;" parent="c9S6Pdu7FSoXvYtG5_ky-218" vertex="1" connectable="0">
          <mxGeometry x="0.9755" y="-2" relative="1" as="geometry">
            <mxPoint x="-17" as="offset" />
          </mxGeometry>
        </mxCell>
        <mxCell id="c9S6Pdu7FSoXvYtG5_ky-16" value="address" style="rounded=0;whiteSpace=wrap;html=1;" parent="1" vertex="1">
          <mxGeometry x="1328" y="-140" width="120" height="60" as="geometry" />
        </mxCell>
        <mxCell id="c9S6Pdu7FSoXvYtG5_ky-17" value="id_address" style="ellipse;whiteSpace=wrap;html=1;" parent="1" vertex="1">
          <mxGeometry x="1134" y="-160" width="120" height="40" as="geometry" />
        </mxCell>
        <mxCell id="c9S6Pdu7FSoXvYtG5_ky-18" value="is_primary" style="ellipse;whiteSpace=wrap;html=1;" parent="1" vertex="1">
          <mxGeometry x="1154" y="-100" width="120" height="40" as="geometry" />
        </mxCell>
        <mxCell id="c9S6Pdu7FSoXvYtG5_ky-19" value="province" style="ellipse;whiteSpace=wrap;html=1;" parent="1" vertex="1">
          <mxGeometry x="1203" y="-40" width="120" height="40" as="geometry" />
        </mxCell>
        <mxCell id="c9S6Pdu7FSoXvYtG5_ky-20" value="city" style="ellipse;whiteSpace=wrap;html=1;" parent="1" vertex="1">
          <mxGeometry x="1323" y="-10" width="120" height="40" as="geometry" />
        </mxCell>
        <mxCell id="c9S6Pdu7FSoXvYtG5_ky-21" value="subdistrict" style="ellipse;whiteSpace=wrap;html=1;" parent="1" vertex="1">
          <mxGeometry x="1443" y="-30" width="120" height="40" as="geometry" />
        </mxCell>
        <mxCell id="c9S6Pdu7FSoXvYtG5_ky-22" value="detail" style="ellipse;whiteSpace=wrap;html=1;" parent="1" vertex="1">
          <mxGeometry x="1490" y="-80" width="120" height="40" as="geometry" />
        </mxCell>
        <mxCell id="c9S6Pdu7FSoXvYtG5_ky-23" value="phone" style="ellipse;whiteSpace=wrap;html=1;" parent="1" vertex="1">
          <mxGeometry x="1500" y="-130" width="120" height="40" as="geometry" />
        </mxCell>
        <mxCell id="c9S6Pdu7FSoXvYtG5_ky-24" value="" style="endArrow=none;html=1;rounded=0;exitX=1;exitY=0.5;exitDx=0;exitDy=0;entryX=0;entryY=0.5;entryDx=0;entryDy=0;" parent="1" source="c9S6Pdu7FSoXvYtG5_ky-17" target="c9S6Pdu7FSoXvYtG5_ky-16" edge="1">
          <mxGeometry width="50" height="50" relative="1" as="geometry">
            <mxPoint x="1414" y="-30" as="sourcePoint" />
            <mxPoint x="1464" y="-80" as="targetPoint" />
          </mxGeometry>
        </mxCell>
        <mxCell id="c9S6Pdu7FSoXvYtG5_ky-25" value="" style="endArrow=none;html=1;rounded=0;exitX=1;exitY=0.5;exitDx=0;exitDy=0;entryX=0;entryY=0.75;entryDx=0;entryDy=0;" parent="1" source="c9S6Pdu7FSoXvYtG5_ky-18" target="c9S6Pdu7FSoXvYtG5_ky-16" edge="1">
          <mxGeometry width="50" height="50" relative="1" as="geometry">
            <mxPoint x="1324" y="-20" as="sourcePoint" />
            <mxPoint x="1374" y="-70" as="targetPoint" />
          </mxGeometry>
        </mxCell>
        <mxCell id="c9S6Pdu7FSoXvYtG5_ky-26" value="" style="endArrow=none;html=1;rounded=0;exitX=0.5;exitY=0;exitDx=0;exitDy=0;entryX=0.113;entryY=1.01;entryDx=0;entryDy=0;entryPerimeter=0;" parent="1" source="c9S6Pdu7FSoXvYtG5_ky-19" target="c9S6Pdu7FSoXvYtG5_ky-16" edge="1">
          <mxGeometry width="50" height="50" relative="1" as="geometry">
            <mxPoint x="1284" y="-50" as="sourcePoint" />
            <mxPoint x="1334" y="-70" as="targetPoint" />
          </mxGeometry>
        </mxCell>
        <mxCell id="c9S6Pdu7FSoXvYtG5_ky-27" value="" style="endArrow=none;html=1;rounded=0;exitX=0.5;exitY=0;exitDx=0;exitDy=0;entryX=0.5;entryY=1;entryDx=0;entryDy=0;" parent="1" source="c9S6Pdu7FSoXvYtG5_ky-20" target="c9S6Pdu7FSoXvYtG5_ky-16" edge="1">
          <mxGeometry width="50" height="50" relative="1" as="geometry">
            <mxPoint x="1278" y="-10" as="sourcePoint" />
            <mxPoint x="1352" y="-69" as="targetPoint" />
          </mxGeometry>
        </mxCell>
        <mxCell id="c9S6Pdu7FSoXvYtG5_ky-28" value="" style="endArrow=none;html=1;rounded=0;exitX=0.063;exitY=0.255;exitDx=0;exitDy=0;entryX=0.75;entryY=1;entryDx=0;entryDy=0;exitPerimeter=0;" parent="1" source="c9S6Pdu7FSoXvYtG5_ky-21" target="c9S6Pdu7FSoXvYtG5_ky-16" edge="1">
          <mxGeometry width="50" height="50" relative="1" as="geometry">
            <mxPoint x="1404" y="30" as="sourcePoint" />
            <mxPoint x="1398" y="-70" as="targetPoint" />
          </mxGeometry>
        </mxCell>
        <mxCell id="c9S6Pdu7FSoXvYtG5_ky-29" value="" style="endArrow=none;html=1;rounded=0;exitX=0;exitY=0.5;exitDx=0;exitDy=0;entryX=1;entryY=0.75;entryDx=0;entryDy=0;" parent="1" source="c9S6Pdu7FSoXvYtG5_ky-22" target="c9S6Pdu7FSoXvYtG5_ky-16" edge="1">
          <mxGeometry width="50" height="50" relative="1" as="geometry">
            <mxPoint x="1473" y="3" as="sourcePoint" />
            <mxPoint x="1428" y="-70" as="targetPoint" />
          </mxGeometry>
        </mxCell>
        <mxCell id="c9S6Pdu7FSoXvYtG5_ky-30" value="" style="endArrow=none;html=1;rounded=0;entryX=1;entryY=0.25;entryDx=0;entryDy=0;" parent="1" source="c9S6Pdu7FSoXvYtG5_ky-23" target="c9S6Pdu7FSoXvYtG5_ky-16" edge="1">
          <mxGeometry width="50" height="50" relative="1" as="geometry">
            <mxPoint x="1524" y="-50" as="sourcePoint" />
            <mxPoint x="1458" y="-85" as="targetPoint" />
          </mxGeometry>
        </mxCell>
        <mxCell id="c9S6Pdu7FSoXvYtG5_ky-176" style="edgeStyle=orthogonalEdgeStyle;rounded=0;orthogonalLoop=1;jettySize=auto;html=1;entryX=0;entryY=0.5;entryDx=0;entryDy=0;exitX=0.75;exitY=0;exitDx=0;exitDy=0;" parent="1" source="c9S6Pdu7FSoXvYtG5_ky-31" target="c9S6Pdu7FSoXvYtG5_ky-175" edge="1">
          <mxGeometry relative="1" as="geometry" />
        </mxCell>
        <mxCell id="c9S6Pdu7FSoXvYtG5_ky-249" value="1" style="edgeLabel;html=1;align=center;verticalAlign=middle;resizable=0;points=[];fontSize=15;" parent="c9S6Pdu7FSoXvYtG5_ky-176" vertex="1" connectable="0">
          <mxGeometry x="0.8191" y="4" relative="1" as="geometry">
            <mxPoint as="offset" />
          </mxGeometry>
        </mxCell>
        <mxCell id="c9S6Pdu7FSoXvYtG5_ky-182" style="edgeStyle=orthogonalEdgeStyle;rounded=0;orthogonalLoop=1;jettySize=auto;html=1;exitX=0;exitY=0;exitDx=0;exitDy=0;entryX=0.5;entryY=1;entryDx=0;entryDy=0;shape=link;curved=1;" parent="1" source="c9S6Pdu7FSoXvYtG5_ky-31" target="c9S6Pdu7FSoXvYtG5_ky-179" edge="1">
          <mxGeometry relative="1" as="geometry" />
        </mxCell>
        <mxCell id="c9S6Pdu7FSoXvYtG5_ky-239" value="M" style="edgeLabel;html=1;align=center;verticalAlign=middle;resizable=0;points=[];fontSize=15;" parent="c9S6Pdu7FSoXvYtG5_ky-182" vertex="1" connectable="0">
          <mxGeometry x="0.8169" y="4" relative="1" as="geometry">
            <mxPoint as="offset" />
          </mxGeometry>
        </mxCell>
        <mxCell id="c9S6Pdu7FSoXvYtG5_ky-184" style="edgeStyle=elbowEdgeStyle;rounded=0;orthogonalLoop=1;jettySize=auto;html=1;entryX=0.5;entryY=0;entryDx=0;entryDy=0;shape=link;" parent="1" source="c9S6Pdu7FSoXvYtG5_ky-31" target="c9S6Pdu7FSoXvYtG5_ky-183" edge="1">
          <mxGeometry relative="1" as="geometry" />
        </mxCell>
        <mxCell id="c9S6Pdu7FSoXvYtG5_ky-247" value="M" style="edgeLabel;html=1;align=center;verticalAlign=middle;resizable=0;points=[];" parent="c9S6Pdu7FSoXvYtG5_ky-184" vertex="1" connectable="0">
          <mxGeometry x="0.6259" y="4" relative="1" as="geometry">
            <mxPoint as="offset" />
          </mxGeometry>
        </mxCell>
        <mxCell id="c9S6Pdu7FSoXvYtG5_ky-188" style="edgeStyle=orthogonalEdgeStyle;rounded=0;orthogonalLoop=1;jettySize=auto;html=1;entryX=1;entryY=0.5;entryDx=0;entryDy=0;curved=1;" parent="1" source="c9S6Pdu7FSoXvYtG5_ky-31" target="c9S6Pdu7FSoXvYtG5_ky-187" edge="1">
          <mxGeometry relative="1" as="geometry">
            <Array as="points">
              <mxPoint x="260" y="620" />
              <mxPoint x="260" y="670" />
              <mxPoint x="130" y="670" />
            </Array>
          </mxGeometry>
        </mxCell>
        <mxCell id="c9S6Pdu7FSoXvYtG5_ky-237" value="M" style="edgeLabel;html=1;align=center;verticalAlign=middle;resizable=0;points=[];fontSize=15;" parent="c9S6Pdu7FSoXvYtG5_ky-188" vertex="1" connectable="0">
          <mxGeometry x="0.7166" y="3" relative="1" as="geometry">
            <mxPoint x="-1" as="offset" />
          </mxGeometry>
        </mxCell>
        <mxCell id="c9S6Pdu7FSoXvYtG5_ky-205" style="edgeStyle=orthogonalEdgeStyle;rounded=0;orthogonalLoop=1;jettySize=auto;html=1;exitX=0.25;exitY=0;exitDx=0;exitDy=0;entryX=0;entryY=0.5;entryDx=0;entryDy=0;" parent="1" source="c9S6Pdu7FSoXvYtG5_ky-31" target="c9S6Pdu7FSoXvYtG5_ky-201" edge="1">
          <mxGeometry relative="1" as="geometry">
            <Array as="points">
              <mxPoint x="439" y="420" />
              <mxPoint x="890" y="420" />
              <mxPoint x="890" y="280" />
            </Array>
          </mxGeometry>
        </mxCell>
        <mxCell id="c9S6Pdu7FSoXvYtG5_ky-225" value="1" style="edgeLabel;html=1;align=center;verticalAlign=middle;resizable=0;points=[];" parent="c9S6Pdu7FSoXvYtG5_ky-205" vertex="1" connectable="0">
          <mxGeometry x="0.8763" y="3" relative="1" as="geometry">
            <mxPoint x="32" y="3" as="offset" />
          </mxGeometry>
        </mxCell>
        <mxCell id="c9S6Pdu7FSoXvYtG5_ky-209" style="edgeStyle=elbowEdgeStyle;rounded=0;orthogonalLoop=1;jettySize=auto;html=1;entryX=0;entryY=0.5;entryDx=0;entryDy=0;" parent="1" source="c9S6Pdu7FSoXvYtG5_ky-31" target="c9S6Pdu7FSoXvYtG5_ky-207" edge="1">
          <mxGeometry relative="1" as="geometry">
            <Array as="points">
              <mxPoint x="480" y="490" />
            </Array>
          </mxGeometry>
        </mxCell>
        <mxCell id="c9S6Pdu7FSoXvYtG5_ky-226" value="1" style="edgeLabel;html=1;align=center;verticalAlign=middle;resizable=0;points=[];fontSize=15;" parent="c9S6Pdu7FSoXvYtG5_ky-209" vertex="1" connectable="0">
          <mxGeometry x="0.9141" relative="1" as="geometry">
            <mxPoint as="offset" />
          </mxGeometry>
        </mxCell>
        <mxCell id="c9S6Pdu7FSoXvYtG5_ky-31" value="products" style="rounded=0;whiteSpace=wrap;html=1;" parent="1" vertex="1">
          <mxGeometry x="417" y="580" width="114" height="60" as="geometry" />
        </mxCell>
        <mxCell id="c9S6Pdu7FSoXvYtG5_ky-32" value="id_product" style="ellipse;whiteSpace=wrap;html=1;" parent="1" vertex="1">
          <mxGeometry x="270" y="565" width="120" height="40" as="geometry" />
        </mxCell>
        <mxCell id="c9S6Pdu7FSoXvYtG5_ky-33" value="name" style="ellipse;whiteSpace=wrap;html=1;" parent="1" vertex="1">
          <mxGeometry x="250" y="660" width="120" height="40" as="geometry" />
        </mxCell>
        <mxCell id="c9S6Pdu7FSoXvYtG5_ky-34" value="price" style="ellipse;whiteSpace=wrap;html=1;" parent="1" vertex="1">
          <mxGeometry x="330" y="710" width="120" height="40" as="geometry" />
        </mxCell>
        <mxCell id="c9S6Pdu7FSoXvYtG5_ky-35" value="image" style="ellipse;whiteSpace=wrap;html=1;" parent="1" vertex="1">
          <mxGeometry x="480" y="720" width="120" height="40" as="geometry" />
        </mxCell>
        <mxCell id="c9S6Pdu7FSoXvYtG5_ky-36" value="description" style="ellipse;whiteSpace=wrap;html=1;" parent="1" vertex="1">
          <mxGeometry x="590" y="600" width="120" height="40" as="geometry" />
        </mxCell>
        <mxCell id="c9S6Pdu7FSoXvYtG5_ky-37" value="stock" style="ellipse;whiteSpace=wrap;html=1;" parent="1" vertex="1">
          <mxGeometry x="540" y="545" width="120" height="40" as="geometry" />
        </mxCell>
        <mxCell id="c9S6Pdu7FSoXvYtG5_ky-39" value="" style="endArrow=none;html=1;rounded=0;exitX=1;exitY=0.5;exitDx=0;exitDy=0;entryX=0;entryY=0.5;entryDx=0;entryDy=0;" parent="1" source="c9S6Pdu7FSoXvYtG5_ky-32" target="c9S6Pdu7FSoXvYtG5_ky-31" edge="1">
          <mxGeometry width="50" height="50" relative="1" as="geometry">
            <mxPoint x="490" y="700" as="sourcePoint" />
            <mxPoint x="540" y="650" as="targetPoint" />
          </mxGeometry>
        </mxCell>
        <mxCell id="c9S6Pdu7FSoXvYtG5_ky-40" value="" style="endArrow=none;html=1;rounded=0;exitX=1;exitY=0.5;exitDx=0;exitDy=0;entryX=0;entryY=0.75;entryDx=0;entryDy=0;" parent="1" source="c9S6Pdu7FSoXvYtG5_ky-33" target="c9S6Pdu7FSoXvYtG5_ky-31" edge="1">
          <mxGeometry width="50" height="50" relative="1" as="geometry">
            <mxPoint x="400" y="710" as="sourcePoint" />
            <mxPoint x="450" y="660" as="targetPoint" />
          </mxGeometry>
        </mxCell>
        <mxCell id="c9S6Pdu7FSoXvYtG5_ky-41" value="" style="endArrow=none;html=1;rounded=0;exitX=0.5;exitY=0;exitDx=0;exitDy=0;entryX=0.113;entryY=1.01;entryDx=0;entryDy=0;entryPerimeter=0;" parent="1" source="c9S6Pdu7FSoXvYtG5_ky-34" target="c9S6Pdu7FSoXvYtG5_ky-31" edge="1">
          <mxGeometry width="50" height="50" relative="1" as="geometry">
            <mxPoint x="360" y="680" as="sourcePoint" />
            <mxPoint x="410" y="660" as="targetPoint" />
          </mxGeometry>
        </mxCell>
        <mxCell id="c9S6Pdu7FSoXvYtG5_ky-42" value="" style="endArrow=none;html=1;rounded=0;exitX=0.5;exitY=0;exitDx=0;exitDy=0;" parent="1" source="c9S6Pdu7FSoXvYtG5_ky-35" target="c9S6Pdu7FSoXvYtG5_ky-31" edge="1">
          <mxGeometry width="50" height="50" relative="1" as="geometry">
            <mxPoint x="354" y="720" as="sourcePoint" />
            <mxPoint x="428" y="661" as="targetPoint" />
          </mxGeometry>
        </mxCell>
        <mxCell id="c9S6Pdu7FSoXvYtG5_ky-43" value="" style="endArrow=none;html=1;rounded=0;exitX=0;exitY=0.5;exitDx=0;exitDy=0;entryX=1;entryY=0.25;entryDx=0;entryDy=0;" parent="1" source="c9S6Pdu7FSoXvYtG5_ky-36" target="c9S6Pdu7FSoXvYtG5_ky-31" edge="1">
          <mxGeometry width="50" height="50" relative="1" as="geometry">
            <mxPoint x="480" y="760" as="sourcePoint" />
            <mxPoint x="474" y="660" as="targetPoint" />
          </mxGeometry>
        </mxCell>
        <mxCell id="c9S6Pdu7FSoXvYtG5_ky-44" value="" style="endArrow=none;html=1;rounded=0;exitX=0;exitY=0.5;exitDx=0;exitDy=0;entryX=1;entryY=0.25;entryDx=0;entryDy=0;" parent="1" source="c9S6Pdu7FSoXvYtG5_ky-37" target="c9S6Pdu7FSoXvYtG5_ky-31" edge="1">
          <mxGeometry width="50" height="50" relative="1" as="geometry">
            <mxPoint x="549" y="733" as="sourcePoint" />
            <mxPoint x="504" y="660" as="targetPoint" />
          </mxGeometry>
        </mxCell>
        <mxCell id="c9S6Pdu7FSoXvYtG5_ky-177" style="edgeStyle=orthogonalEdgeStyle;rounded=0;orthogonalLoop=1;jettySize=auto;html=1;entryX=1;entryY=0.5;entryDx=0;entryDy=0;exitX=0.5;exitY=0;exitDx=0;exitDy=0;shape=link;" parent="1" source="c9S6Pdu7FSoXvYtG5_ky-46" target="c9S6Pdu7FSoXvYtG5_ky-175" edge="1">
          <mxGeometry relative="1" as="geometry" />
        </mxCell>
        <mxCell id="c9S6Pdu7FSoXvYtG5_ky-250" value="1" style="edgeLabel;html=1;align=center;verticalAlign=middle;resizable=0;points=[];fontSize=15;" parent="c9S6Pdu7FSoXvYtG5_ky-177" vertex="1" connectable="0">
          <mxGeometry x="0.8473" y="1" relative="1" as="geometry">
            <mxPoint as="offset" />
          </mxGeometry>
        </mxCell>
        <mxCell id="c9S6Pdu7FSoXvYtG5_ky-46" value="discount" style="rounded=0;whiteSpace=wrap;html=1;" parent="1" vertex="1">
          <mxGeometry x="1178" y="580" width="120" height="60" as="geometry" />
        </mxCell>
        <mxCell id="c9S6Pdu7FSoXvYtG5_ky-47" value="id_discount" style="ellipse;whiteSpace=wrap;html=1;" parent="1" vertex="1">
          <mxGeometry x="984" y="560" width="120" height="40" as="geometry" />
        </mxCell>
        <mxCell id="c9S6Pdu7FSoXvYtG5_ky-48" value="start_date" style="ellipse;whiteSpace=wrap;html=1;" parent="1" vertex="1">
          <mxGeometry x="1004" y="640" width="120" height="40" as="geometry" />
        </mxCell>
        <mxCell id="c9S6Pdu7FSoXvYtG5_ky-49" value="end_date" style="ellipse;whiteSpace=wrap;html=1;" parent="1" vertex="1">
          <mxGeometry x="1058" y="700" width="120" height="40" as="geometry" />
        </mxCell>
        <mxCell id="c9S6Pdu7FSoXvYtG5_ky-50" value="quota" style="ellipse;whiteSpace=wrap;html=1;" parent="1" vertex="1">
          <mxGeometry x="1184" y="740" width="120" height="40" as="geometry" />
        </mxCell>
        <mxCell id="c9S6Pdu7FSoXvYtG5_ky-53" value="" style="endArrow=none;html=1;rounded=0;exitX=1;exitY=0.5;exitDx=0;exitDy=0;entryX=0;entryY=0.5;entryDx=0;entryDy=0;" parent="1" source="c9S6Pdu7FSoXvYtG5_ky-47" target="c9S6Pdu7FSoXvYtG5_ky-46" edge="1">
          <mxGeometry width="50" height="50" relative="1" as="geometry">
            <mxPoint x="1264" y="690" as="sourcePoint" />
            <mxPoint x="1314" y="640" as="targetPoint" />
          </mxGeometry>
        </mxCell>
        <mxCell id="c9S6Pdu7FSoXvYtG5_ky-54" value="" style="endArrow=none;html=1;rounded=0;exitX=1;exitY=0.5;exitDx=0;exitDy=0;entryX=0;entryY=0.75;entryDx=0;entryDy=0;" parent="1" source="c9S6Pdu7FSoXvYtG5_ky-48" target="c9S6Pdu7FSoXvYtG5_ky-46" edge="1">
          <mxGeometry width="50" height="50" relative="1" as="geometry">
            <mxPoint x="1174" y="700" as="sourcePoint" />
            <mxPoint x="1224" y="650" as="targetPoint" />
          </mxGeometry>
        </mxCell>
        <mxCell id="c9S6Pdu7FSoXvYtG5_ky-55" value="" style="endArrow=none;html=1;rounded=0;exitX=0.5;exitY=0;exitDx=0;exitDy=0;entryX=0.113;entryY=1.01;entryDx=0;entryDy=0;entryPerimeter=0;" parent="1" source="c9S6Pdu7FSoXvYtG5_ky-49" target="c9S6Pdu7FSoXvYtG5_ky-46" edge="1">
          <mxGeometry width="50" height="50" relative="1" as="geometry">
            <mxPoint x="1134" y="670" as="sourcePoint" />
            <mxPoint x="1184" y="650" as="targetPoint" />
          </mxGeometry>
        </mxCell>
        <mxCell id="c9S6Pdu7FSoXvYtG5_ky-56" value="" style="endArrow=none;html=1;rounded=0;exitX=0.5;exitY=0;exitDx=0;exitDy=0;entryX=0.5;entryY=1;entryDx=0;entryDy=0;" parent="1" source="c9S6Pdu7FSoXvYtG5_ky-50" target="c9S6Pdu7FSoXvYtG5_ky-46" edge="1">
          <mxGeometry width="50" height="50" relative="1" as="geometry">
            <mxPoint x="1128" y="710" as="sourcePoint" />
            <mxPoint x="1202" y="651" as="targetPoint" />
          </mxGeometry>
        </mxCell>
        <mxCell id="c9S6Pdu7FSoXvYtG5_ky-185" style="edgeStyle=elbowEdgeStyle;rounded=0;orthogonalLoop=1;jettySize=auto;html=1;entryX=0.5;entryY=1;entryDx=0;entryDy=0;" parent="1" source="c9S6Pdu7FSoXvYtG5_ky-59" target="c9S6Pdu7FSoXvYtG5_ky-183" edge="1">
          <mxGeometry relative="1" as="geometry" />
        </mxCell>
        <mxCell id="c9S6Pdu7FSoXvYtG5_ky-248" value="1" style="edgeLabel;html=1;align=center;verticalAlign=middle;resizable=0;points=[];" parent="c9S6Pdu7FSoXvYtG5_ky-185" vertex="1" connectable="0">
          <mxGeometry x="0.3987" y="-2" relative="1" as="geometry">
            <mxPoint as="offset" />
          </mxGeometry>
        </mxCell>
        <mxCell id="c9S6Pdu7FSoXvYtG5_ky-59" value="category" style="rounded=0;whiteSpace=wrap;html=1;" parent="1" vertex="1">
          <mxGeometry x="404" y="990" width="120" height="50" as="geometry" />
        </mxCell>
        <mxCell id="c9S6Pdu7FSoXvYtG5_ky-60" value="id_category" style="ellipse;whiteSpace=wrap;html=1;" parent="1" vertex="1">
          <mxGeometry x="185.5" y="960" width="120" height="40" as="geometry" />
        </mxCell>
        <mxCell id="c9S6Pdu7FSoXvYtG5_ky-61" value="name" style="ellipse;whiteSpace=wrap;html=1;" parent="1" vertex="1">
          <mxGeometry x="200" y="1040" width="120" height="40" as="geometry" />
        </mxCell>
        <mxCell id="c9S6Pdu7FSoXvYtG5_ky-66" value="" style="endArrow=none;html=1;rounded=0;exitX=1;exitY=0.5;exitDx=0;exitDy=0;entryX=0;entryY=0.5;entryDx=0;entryDy=0;" parent="1" target="c9S6Pdu7FSoXvYtG5_ky-59" edge="1">
          <mxGeometry width="50" height="50" relative="1" as="geometry">
            <mxPoint x="302.5" y="980" as="sourcePoint" />
            <mxPoint x="512.5" y="1040" as="targetPoint" />
          </mxGeometry>
        </mxCell>
        <mxCell id="c9S6Pdu7FSoXvYtG5_ky-67" value="" style="endArrow=none;html=1;rounded=0;entryX=0;entryY=0.75;entryDx=0;entryDy=0;" parent="1" target="c9S6Pdu7FSoXvYtG5_ky-59" edge="1">
          <mxGeometry width="50" height="50" relative="1" as="geometry">
            <mxPoint x="320" y="1060" as="sourcePoint" />
            <mxPoint x="422.5" y="1050" as="targetPoint" />
          </mxGeometry>
        </mxCell>
        <mxCell id="c9S6Pdu7FSoXvYtG5_ky-191" style="edgeStyle=orthogonalEdgeStyle;rounded=0;orthogonalLoop=1;jettySize=auto;html=1;entryX=0;entryY=0.5;entryDx=0;entryDy=0;curved=1;shape=link;" parent="1" source="c9S6Pdu7FSoXvYtG5_ky-72" target="c9S6Pdu7FSoXvYtG5_ky-187" edge="1">
          <mxGeometry relative="1" as="geometry" />
        </mxCell>
        <mxCell id="c9S6Pdu7FSoXvYtG5_ky-236" value="M" style="edgeLabel;html=1;align=center;verticalAlign=middle;resizable=0;points=[];fontSize=15;" parent="c9S6Pdu7FSoXvYtG5_ky-191" vertex="1" connectable="0">
          <mxGeometry x="0.3158" y="1" relative="1" as="geometry">
            <mxPoint y="1" as="offset" />
          </mxGeometry>
        </mxCell>
        <mxCell id="c9S6Pdu7FSoXvYtG5_ky-241" style="edgeStyle=orthogonalEdgeStyle;rounded=0;orthogonalLoop=1;jettySize=auto;html=1;exitX=0.5;exitY=0;exitDx=0;exitDy=0;entryX=0.5;entryY=1;entryDx=0;entryDy=0;curved=1;shape=link;" parent="1" source="c9S6Pdu7FSoXvYtG5_ky-72" target="c9S6Pdu7FSoXvYtG5_ky-240" edge="1">
          <mxGeometry relative="1" as="geometry" />
        </mxCell>
        <mxCell id="c9S6Pdu7FSoXvYtG5_ky-243" value="M" style="edgeLabel;html=1;align=center;verticalAlign=middle;resizable=0;points=[];fontSize=13;" parent="c9S6Pdu7FSoXvYtG5_ky-241" vertex="1" connectable="0">
          <mxGeometry x="0.1244" y="2" relative="1" as="geometry">
            <mxPoint x="13" y="-15" as="offset" />
          </mxGeometry>
        </mxCell>
        <mxCell id="c9S6Pdu7FSoXvYtG5_ky-72" value="shipping_cart" style="rounded=0;whiteSpace=wrap;html=1;" parent="1" vertex="1">
          <mxGeometry x="-76" y="525" width="120" height="60" as="geometry" />
        </mxCell>
        <mxCell id="c9S6Pdu7FSoXvYtG5_ky-73" value="id_product" style="ellipse;whiteSpace=wrap;html=1;" parent="1" vertex="1">
          <mxGeometry x="-240" y="505" width="120" height="40" as="geometry" />
        </mxCell>
        <mxCell id="c9S6Pdu7FSoXvYtG5_ky-74" value="qty" style="ellipse;whiteSpace=wrap;html=1;" parent="1" vertex="1">
          <mxGeometry x="-240" y="565" width="120" height="40" as="geometry" />
        </mxCell>
        <mxCell id="c9S6Pdu7FSoXvYtG5_ky-75" value="" style="endArrow=none;html=1;rounded=0;exitX=1;exitY=0.5;exitDx=0;exitDy=0;entryX=0;entryY=0.5;entryDx=0;entryDy=0;" parent="1" source="c9S6Pdu7FSoXvYtG5_ky-73" target="c9S6Pdu7FSoXvYtG5_ky-72" edge="1">
          <mxGeometry width="50" height="50" relative="1" as="geometry">
            <mxPoint x="10" y="635" as="sourcePoint" />
            <mxPoint x="60" y="585" as="targetPoint" />
          </mxGeometry>
        </mxCell>
        <mxCell id="c9S6Pdu7FSoXvYtG5_ky-76" value="" style="endArrow=none;html=1;rounded=0;exitX=1;exitY=0.5;exitDx=0;exitDy=0;entryX=0;entryY=0.75;entryDx=0;entryDy=0;" parent="1" source="c9S6Pdu7FSoXvYtG5_ky-74" target="c9S6Pdu7FSoXvYtG5_ky-72" edge="1">
          <mxGeometry width="50" height="50" relative="1" as="geometry">
            <mxPoint x="-80" y="645" as="sourcePoint" />
            <mxPoint x="-30" y="595" as="targetPoint" />
          </mxGeometry>
        </mxCell>
        <mxCell id="c9S6Pdu7FSoXvYtG5_ky-77" value="total_price" style="ellipse;whiteSpace=wrap;html=1;" parent="1" vertex="1">
          <mxGeometry x="90" y="535" width="120" height="40" as="geometry" />
        </mxCell>
        <mxCell id="c9S6Pdu7FSoXvYtG5_ky-78" value="" style="endArrow=none;html=1;rounded=0;exitX=0;exitY=0.5;exitDx=0;exitDy=0;entryX=1;entryY=0.5;entryDx=0;entryDy=0;" parent="1" source="c9S6Pdu7FSoXvYtG5_ky-77" target="c9S6Pdu7FSoXvYtG5_ky-72" edge="1">
          <mxGeometry width="50" height="50" relative="1" as="geometry">
            <mxPoint x="20" y="700" as="sourcePoint" />
            <mxPoint x="24" y="625" as="targetPoint" />
          </mxGeometry>
        </mxCell>
        <mxCell id="c9S6Pdu7FSoXvYtG5_ky-197" style="edgeStyle=orthogonalEdgeStyle;rounded=0;orthogonalLoop=1;jettySize=auto;html=1;exitX=0.5;exitY=0;exitDx=0;exitDy=0;entryX=0;entryY=0.5;entryDx=0;entryDy=0;curved=1;shape=link;" parent="1" source="c9S6Pdu7FSoXvYtG5_ky-79" target="c9S6Pdu7FSoXvYtG5_ky-195" edge="1">
          <mxGeometry relative="1" as="geometry" />
        </mxCell>
        <mxCell id="c9S6Pdu7FSoXvYtG5_ky-231" value="1" style="edgeLabel;html=1;align=center;verticalAlign=middle;resizable=0;points=[];" parent="c9S6Pdu7FSoXvYtG5_ky-197" vertex="1" connectable="0">
          <mxGeometry x="0.8148" y="-2" relative="1" as="geometry">
            <mxPoint as="offset" />
          </mxGeometry>
        </mxCell>
        <mxCell id="c9S6Pdu7FSoXvYtG5_ky-214" style="edgeStyle=orthogonalEdgeStyle;rounded=0;orthogonalLoop=1;jettySize=auto;html=1;entryX=0.5;entryY=0;entryDx=0;entryDy=0;exitX=0.5;exitY=1;exitDx=0;exitDy=0;shape=link;" parent="1" source="c9S6Pdu7FSoXvYtG5_ky-79" target="c9S6Pdu7FSoXvYtG5_ky-213" edge="1">
          <mxGeometry relative="1" as="geometry" />
        </mxCell>
        <mxCell id="c9S6Pdu7FSoXvYtG5_ky-232" value="1" style="edgeLabel;html=1;align=center;verticalAlign=middle;resizable=0;points=[];" parent="c9S6Pdu7FSoXvYtG5_ky-214" vertex="1" connectable="0">
          <mxGeometry x="0.5287" y="1" relative="1" as="geometry">
            <mxPoint as="offset" />
          </mxGeometry>
        </mxCell>
        <mxCell id="c9S6Pdu7FSoXvYtG5_ky-219" style="edgeStyle=elbowEdgeStyle;rounded=0;orthogonalLoop=1;jettySize=auto;html=1;entryX=0.047;entryY=0.481;entryDx=0;entryDy=0;entryPerimeter=0;shape=link;" parent="1" source="c9S6Pdu7FSoXvYtG5_ky-79" target="c9S6Pdu7FSoXvYtG5_ky-217" edge="1">
          <mxGeometry relative="1" as="geometry">
            <mxPoint x="1300" y="1530" as="targetPoint" />
          </mxGeometry>
        </mxCell>
        <mxCell id="c9S6Pdu7FSoXvYtG5_ky-234" value="&lt;font data-sider-select-id=&quot;a54fb07e-0e72-4c13-8e2c-83e0cc95d5b9&quot; style=&quot;font-size: 15px;&quot;&gt;M&lt;/font&gt;" style="edgeLabel;html=1;align=center;verticalAlign=middle;resizable=0;points=[];" parent="c9S6Pdu7FSoXvYtG5_ky-219" vertex="1" connectable="0">
          <mxGeometry x="0.9041" y="2" relative="1" as="geometry">
            <mxPoint x="22" as="offset" />
          </mxGeometry>
        </mxCell>
        <mxCell id="c9S6Pdu7FSoXvYtG5_ky-254" style="edgeStyle=orthogonalEdgeStyle;rounded=0;orthogonalLoop=1;jettySize=auto;html=1;exitX=0.25;exitY=0;exitDx=0;exitDy=0;entryX=0.5;entryY=1;entryDx=0;entryDy=0;shape=link;" parent="1" source="c9S6Pdu7FSoXvYtG5_ky-79" target="c9S6Pdu7FSoXvYtG5_ky-251" edge="1">
          <mxGeometry relative="1" as="geometry">
            <Array as="points">
              <mxPoint x="324" y="1200" />
              <mxPoint x="-275" y="1200" />
            </Array>
          </mxGeometry>
        </mxCell>
        <mxCell id="c9S6Pdu7FSoXvYtG5_ky-256" value="M" style="edgeLabel;html=1;align=center;verticalAlign=middle;resizable=0;points=[];fontSize=15;" parent="c9S6Pdu7FSoXvYtG5_ky-254" vertex="1" connectable="0">
          <mxGeometry x="0.9681" relative="1" as="geometry">
            <mxPoint as="offset" />
          </mxGeometry>
        </mxCell>
        <mxCell id="c9S6Pdu7FSoXvYtG5_ky-79" value="history_order" style="rounded=0;whiteSpace=wrap;html=1;" parent="1" vertex="1">
          <mxGeometry x="294" y="1280" width="120" height="60" as="geometry" />
        </mxCell>
        <mxCell id="c9S6Pdu7FSoXvYtG5_ky-80" value="id_transactions" style="ellipse;whiteSpace=wrap;html=1;" parent="1" vertex="1">
          <mxGeometry x="90" y="1280" width="120" height="40" as="geometry" />
        </mxCell>
        <mxCell id="c9S6Pdu7FSoXvYtG5_ky-81" value="name" style="ellipse;whiteSpace=wrap;html=1;" parent="1" vertex="1">
          <mxGeometry x="110" y="1360" width="120" height="40" as="geometry" />
        </mxCell>
        <mxCell id="c9S6Pdu7FSoXvYtG5_ky-83" value="total_price" style="ellipse;whiteSpace=wrap;html=1;dashed=1;" parent="1" vertex="1">
          <mxGeometry x="220" y="1400" width="120" height="40" as="geometry" />
        </mxCell>
        <mxCell id="c9S6Pdu7FSoXvYtG5_ky-84" value="shipping_status" style="ellipse;whiteSpace=wrap;html=1;" parent="1" vertex="1">
          <mxGeometry x="440" y="1390" width="120" height="40" as="geometry" />
        </mxCell>
        <mxCell id="c9S6Pdu7FSoXvYtG5_ky-85" value="created_at" style="ellipse;whiteSpace=wrap;html=1;" parent="1" vertex="1">
          <mxGeometry x="470" y="1330" width="120" height="40" as="geometry" />
        </mxCell>
        <mxCell id="c9S6Pdu7FSoXvYtG5_ky-86" value="updated_at" style="ellipse;whiteSpace=wrap;html=1;" parent="1" vertex="1">
          <mxGeometry x="480" y="1240" width="120" height="40" as="geometry" />
        </mxCell>
        <mxCell id="c9S6Pdu7FSoXvYtG5_ky-87" value="" style="endArrow=none;html=1;rounded=0;exitX=1;exitY=0.5;exitDx=0;exitDy=0;entryX=0;entryY=0.5;entryDx=0;entryDy=0;" parent="1" source="c9S6Pdu7FSoXvYtG5_ky-80" target="c9S6Pdu7FSoXvYtG5_ky-79" edge="1">
          <mxGeometry width="50" height="50" relative="1" as="geometry">
            <mxPoint x="370" y="1410" as="sourcePoint" />
            <mxPoint x="420" y="1360" as="targetPoint" />
          </mxGeometry>
        </mxCell>
        <mxCell id="c9S6Pdu7FSoXvYtG5_ky-88" value="" style="endArrow=none;html=1;rounded=0;exitX=1;exitY=0.5;exitDx=0;exitDy=0;entryX=0;entryY=0.75;entryDx=0;entryDy=0;" parent="1" source="c9S6Pdu7FSoXvYtG5_ky-81" target="c9S6Pdu7FSoXvYtG5_ky-79" edge="1">
          <mxGeometry width="50" height="50" relative="1" as="geometry">
            <mxPoint x="280" y="1420" as="sourcePoint" />
            <mxPoint x="330" y="1370" as="targetPoint" />
          </mxGeometry>
        </mxCell>
        <mxCell id="c9S6Pdu7FSoXvYtG5_ky-90" value="" style="endArrow=none;html=1;rounded=0;exitX=0.5;exitY=0;exitDx=0;exitDy=0;entryX=0.132;entryY=1.042;entryDx=0;entryDy=0;entryPerimeter=0;" parent="1" source="c9S6Pdu7FSoXvYtG5_ky-83" target="c9S6Pdu7FSoXvYtG5_ky-79" edge="1">
          <mxGeometry width="50" height="50" relative="1" as="geometry">
            <mxPoint x="234" y="1430" as="sourcePoint" />
            <mxPoint x="308" y="1371" as="targetPoint" />
          </mxGeometry>
        </mxCell>
        <mxCell id="c9S6Pdu7FSoXvYtG5_ky-91" value="" style="endArrow=none;html=1;rounded=0;exitX=0;exitY=0;exitDx=0;exitDy=0;entryX=0.75;entryY=1;entryDx=0;entryDy=0;" parent="1" source="c9S6Pdu7FSoXvYtG5_ky-84" target="c9S6Pdu7FSoXvYtG5_ky-79" edge="1">
          <mxGeometry width="50" height="50" relative="1" as="geometry">
            <mxPoint x="360" y="1470" as="sourcePoint" />
            <mxPoint x="354" y="1370" as="targetPoint" />
          </mxGeometry>
        </mxCell>
        <mxCell id="c9S6Pdu7FSoXvYtG5_ky-92" value="" style="endArrow=none;html=1;rounded=0;exitX=0;exitY=0.5;exitDx=0;exitDy=0;entryX=1;entryY=0.75;entryDx=0;entryDy=0;" parent="1" source="c9S6Pdu7FSoXvYtG5_ky-85" target="c9S6Pdu7FSoXvYtG5_ky-79" edge="1">
          <mxGeometry width="50" height="50" relative="1" as="geometry">
            <mxPoint x="429" y="1443" as="sourcePoint" />
            <mxPoint x="384" y="1370" as="targetPoint" />
          </mxGeometry>
        </mxCell>
        <mxCell id="c9S6Pdu7FSoXvYtG5_ky-93" value="" style="endArrow=none;html=1;rounded=0;entryX=1;entryY=0.25;entryDx=0;entryDy=0;" parent="1" source="c9S6Pdu7FSoXvYtG5_ky-86" target="c9S6Pdu7FSoXvYtG5_ky-79" edge="1">
          <mxGeometry width="50" height="50" relative="1" as="geometry">
            <mxPoint x="480" y="1390" as="sourcePoint" />
            <mxPoint x="414" y="1355" as="targetPoint" />
          </mxGeometry>
        </mxCell>
        <mxCell id="c9S6Pdu7FSoXvYtG5_ky-194" style="edgeStyle=orthogonalEdgeStyle;rounded=0;orthogonalLoop=1;jettySize=auto;html=1;exitX=0.5;exitY=0;exitDx=0;exitDy=0;entryX=0.5;entryY=1;entryDx=0;entryDy=0;curved=1;shape=link;" parent="1" source="c9S6Pdu7FSoXvYtG5_ky-94" target="c9S6Pdu7FSoXvYtG5_ky-192" edge="1">
          <mxGeometry relative="1" as="geometry" />
        </mxCell>
        <mxCell id="c9S6Pdu7FSoXvYtG5_ky-229" value="M" style="edgeLabel;html=1;align=center;verticalAlign=middle;resizable=0;points=[];" parent="c9S6Pdu7FSoXvYtG5_ky-194" vertex="1" connectable="0">
          <mxGeometry x="0.7549" y="-2" relative="1" as="geometry">
            <mxPoint y="-1" as="offset" />
          </mxGeometry>
        </mxCell>
        <mxCell id="c9S6Pdu7FSoXvYtG5_ky-196" style="edgeStyle=orthogonalEdgeStyle;rounded=0;orthogonalLoop=1;jettySize=auto;html=1;exitX=0.5;exitY=1;exitDx=0;exitDy=0;entryX=1;entryY=0.5;entryDx=0;entryDy=0;curved=1;shape=link;" parent="1" source="c9S6Pdu7FSoXvYtG5_ky-94" target="c9S6Pdu7FSoXvYtG5_ky-195" edge="1">
          <mxGeometry relative="1" as="geometry" />
        </mxCell>
        <mxCell id="c9S6Pdu7FSoXvYtG5_ky-230" value="M" style="edgeLabel;html=1;align=center;verticalAlign=middle;resizable=0;points=[];" parent="c9S6Pdu7FSoXvYtG5_ky-196" vertex="1" connectable="0">
          <mxGeometry x="0.7562" y="-4" relative="1" as="geometry">
            <mxPoint x="1" as="offset" />
          </mxGeometry>
        </mxCell>
        <mxCell id="c9S6Pdu7FSoXvYtG5_ky-94" value="ordered_products" style="rounded=0;whiteSpace=wrap;html=1;" parent="1" vertex="1">
          <mxGeometry x="914" y="969" width="120" height="60" as="geometry" />
        </mxCell>
        <mxCell id="c9S6Pdu7FSoXvYtG5_ky-95" value="id_ordered_product" style="ellipse;whiteSpace=wrap;html=1;" parent="1" vertex="1">
          <mxGeometry x="720" y="949" width="120" height="40" as="geometry" />
        </mxCell>
        <mxCell id="c9S6Pdu7FSoXvYtG5_ky-96" value="name" style="ellipse;whiteSpace=wrap;html=1;" parent="1" vertex="1">
          <mxGeometry x="740" y="1029" width="120" height="40" as="geometry" />
        </mxCell>
        <mxCell id="c9S6Pdu7FSoXvYtG5_ky-97" value="qty" style="ellipse;whiteSpace=wrap;html=1;" parent="1" vertex="1">
          <mxGeometry x="1030" y="1069" width="120" height="40" as="geometry" />
        </mxCell>
        <mxCell id="c9S6Pdu7FSoXvYtG5_ky-98" value="total_price" style="ellipse;whiteSpace=wrap;html=1;dashed=1;" parent="1" vertex="1">
          <mxGeometry x="1080" y="990" width="120" height="40" as="geometry" />
        </mxCell>
        <mxCell id="c9S6Pdu7FSoXvYtG5_ky-102" value="" style="endArrow=none;html=1;rounded=0;exitX=1;exitY=0.5;exitDx=0;exitDy=0;entryX=0;entryY=0.5;entryDx=0;entryDy=0;" parent="1" source="c9S6Pdu7FSoXvYtG5_ky-95" target="c9S6Pdu7FSoXvYtG5_ky-94" edge="1">
          <mxGeometry width="50" height="50" relative="1" as="geometry">
            <mxPoint x="1000" y="1079" as="sourcePoint" />
            <mxPoint x="1050" y="1029" as="targetPoint" />
          </mxGeometry>
        </mxCell>
        <mxCell id="c9S6Pdu7FSoXvYtG5_ky-103" value="" style="endArrow=none;html=1;rounded=0;exitX=1;exitY=0.5;exitDx=0;exitDy=0;entryX=0;entryY=0.75;entryDx=0;entryDy=0;" parent="1" source="c9S6Pdu7FSoXvYtG5_ky-96" target="c9S6Pdu7FSoXvYtG5_ky-94" edge="1">
          <mxGeometry width="50" height="50" relative="1" as="geometry">
            <mxPoint x="910" y="1089" as="sourcePoint" />
            <mxPoint x="960" y="1039" as="targetPoint" />
          </mxGeometry>
        </mxCell>
        <mxCell id="c9S6Pdu7FSoXvYtG5_ky-104" value="" style="endArrow=none;html=1;rounded=0;exitX=0.5;exitY=0;exitDx=0;exitDy=0;entryX=1;entryY=1;entryDx=0;entryDy=0;" parent="1" source="c9S6Pdu7FSoXvYtG5_ky-97" target="c9S6Pdu7FSoXvYtG5_ky-94" edge="1">
          <mxGeometry width="50" height="50" relative="1" as="geometry">
            <mxPoint x="870" y="1059" as="sourcePoint" />
            <mxPoint x="920" y="1039" as="targetPoint" />
          </mxGeometry>
        </mxCell>
        <mxCell id="c9S6Pdu7FSoXvYtG5_ky-105" value="" style="endArrow=none;html=1;rounded=0;exitX=0;exitY=0.5;exitDx=0;exitDy=0;entryX=1;entryY=0.5;entryDx=0;entryDy=0;" parent="1" source="c9S6Pdu7FSoXvYtG5_ky-98" target="c9S6Pdu7FSoXvYtG5_ky-94" edge="1">
          <mxGeometry width="50" height="50" relative="1" as="geometry">
            <mxPoint x="864" y="1099" as="sourcePoint" />
            <mxPoint x="938" y="1040" as="targetPoint" />
          </mxGeometry>
        </mxCell>
        <mxCell id="c9S6Pdu7FSoXvYtG5_ky-208" style="edgeStyle=elbowEdgeStyle;rounded=0;orthogonalLoop=1;jettySize=auto;html=1;entryX=1;entryY=0.5;entryDx=0;entryDy=0;" parent="1" source="c9S6Pdu7FSoXvYtG5_ky-109" target="c9S6Pdu7FSoXvYtG5_ky-207" edge="1">
          <mxGeometry relative="1" as="geometry" />
        </mxCell>
        <mxCell id="c9S6Pdu7FSoXvYtG5_ky-227" value="M" style="edgeLabel;html=1;align=center;verticalAlign=middle;resizable=0;points=[];fontSize=15;" parent="c9S6Pdu7FSoXvYtG5_ky-208" vertex="1" connectable="0">
          <mxGeometry x="0.641" y="-2" relative="1" as="geometry">
            <mxPoint x="-1" as="offset" />
          </mxGeometry>
        </mxCell>
        <mxCell id="c9S6Pdu7FSoXvYtG5_ky-109" value="review" style="rounded=0;whiteSpace=wrap;html=1;" parent="1" vertex="1">
          <mxGeometry x="1738" y="490" width="120" height="60" as="geometry" />
        </mxCell>
        <mxCell id="c9S6Pdu7FSoXvYtG5_ky-110" value="id_review" style="ellipse;whiteSpace=wrap;html=1;" parent="1" vertex="1">
          <mxGeometry x="1930" y="480" width="120" height="40" as="geometry" />
        </mxCell>
        <mxCell id="c9S6Pdu7FSoXvYtG5_ky-111" value="rating" style="ellipse;whiteSpace=wrap;html=1;" parent="1" vertex="1">
          <mxGeometry x="1564" y="550" width="120" height="40" as="geometry" />
        </mxCell>
        <mxCell id="c9S6Pdu7FSoXvYtG5_ky-112" value="comment" style="ellipse;whiteSpace=wrap;html=1;" parent="1" vertex="1">
          <mxGeometry x="1618" y="610" width="120" height="40" as="geometry" />
        </mxCell>
        <mxCell id="c9S6Pdu7FSoXvYtG5_ky-113" value="image" style="ellipse;whiteSpace=wrap;html=1;" parent="1" vertex="1">
          <mxGeometry x="1744" y="650" width="120" height="40" as="geometry" />
        </mxCell>
        <mxCell id="c9S6Pdu7FSoXvYtG5_ky-114" value="" style="endArrow=none;html=1;rounded=0;exitX=0;exitY=0.5;exitDx=0;exitDy=0;entryX=1;entryY=0.5;entryDx=0;entryDy=0;" parent="1" source="c9S6Pdu7FSoXvYtG5_ky-110" target="c9S6Pdu7FSoXvYtG5_ky-109" edge="1">
          <mxGeometry width="50" height="50" relative="1" as="geometry">
            <mxPoint x="1824" y="600" as="sourcePoint" />
            <mxPoint x="1870" y="520" as="targetPoint" />
            <Array as="points">
              <mxPoint x="1890" y="510" />
            </Array>
          </mxGeometry>
        </mxCell>
        <mxCell id="c9S6Pdu7FSoXvYtG5_ky-115" value="" style="endArrow=none;html=1;rounded=0;exitX=1;exitY=0.5;exitDx=0;exitDy=0;entryX=0;entryY=0.75;entryDx=0;entryDy=0;" parent="1" source="c9S6Pdu7FSoXvYtG5_ky-111" target="c9S6Pdu7FSoXvYtG5_ky-109" edge="1">
          <mxGeometry width="50" height="50" relative="1" as="geometry">
            <mxPoint x="1734" y="610" as="sourcePoint" />
            <mxPoint x="1784" y="560" as="targetPoint" />
          </mxGeometry>
        </mxCell>
        <mxCell id="c9S6Pdu7FSoXvYtG5_ky-116" value="" style="endArrow=none;html=1;rounded=0;exitX=0.5;exitY=0;exitDx=0;exitDy=0;entryX=0.113;entryY=1.01;entryDx=0;entryDy=0;entryPerimeter=0;" parent="1" source="c9S6Pdu7FSoXvYtG5_ky-112" target="c9S6Pdu7FSoXvYtG5_ky-109" edge="1">
          <mxGeometry width="50" height="50" relative="1" as="geometry">
            <mxPoint x="1694" y="580" as="sourcePoint" />
            <mxPoint x="1744" y="560" as="targetPoint" />
          </mxGeometry>
        </mxCell>
        <mxCell id="c9S6Pdu7FSoXvYtG5_ky-117" value="" style="endArrow=none;html=1;rounded=0;exitX=0.5;exitY=0;exitDx=0;exitDy=0;entryX=0.5;entryY=1;entryDx=0;entryDy=0;" parent="1" source="c9S6Pdu7FSoXvYtG5_ky-113" target="c9S6Pdu7FSoXvYtG5_ky-109" edge="1">
          <mxGeometry width="50" height="50" relative="1" as="geometry">
            <mxPoint x="1688" y="620" as="sourcePoint" />
            <mxPoint x="1762" y="561" as="targetPoint" />
          </mxGeometry>
        </mxCell>
        <mxCell id="c9S6Pdu7FSoXvYtG5_ky-120" value="created_at" style="ellipse;whiteSpace=wrap;html=1;" parent="1" vertex="1">
          <mxGeometry x="1884" y="610" width="120" height="40" as="geometry" />
        </mxCell>
        <mxCell id="c9S6Pdu7FSoXvYtG5_ky-121" value="" style="endArrow=none;html=1;rounded=0;entryX=0.75;entryY=1;entryDx=0;entryDy=0;" parent="1" source="c9S6Pdu7FSoXvYtG5_ky-120" target="c9S6Pdu7FSoXvYtG5_ky-109" edge="1">
          <mxGeometry width="50" height="50" relative="1" as="geometry">
            <mxPoint x="1814" y="660" as="sourcePoint" />
            <mxPoint x="1808" y="560" as="targetPoint" />
          </mxGeometry>
        </mxCell>
        <mxCell id="c9S6Pdu7FSoXvYtG5_ky-204" style="edgeStyle=elbowEdgeStyle;rounded=0;orthogonalLoop=1;jettySize=auto;html=1;exitX=0;exitY=0.5;exitDx=0;exitDy=0;entryX=1;entryY=0.5;entryDx=0;entryDy=0;" parent="1" source="c9S6Pdu7FSoXvYtG5_ky-122" target="c9S6Pdu7FSoXvYtG5_ky-201" edge="1">
          <mxGeometry relative="1" as="geometry" />
        </mxCell>
        <mxCell id="c9S6Pdu7FSoXvYtG5_ky-224" value="M" style="edgeLabel;html=1;align=center;verticalAlign=middle;resizable=0;points=[];" parent="c9S6Pdu7FSoXvYtG5_ky-204" vertex="1" connectable="0">
          <mxGeometry x="0.7405" y="2" relative="1" as="geometry">
            <mxPoint x="-12" y="-2" as="offset" />
          </mxGeometry>
        </mxCell>
        <mxCell id="c9S6Pdu7FSoXvYtG5_ky-122" value="whislist" style="rounded=0;whiteSpace=wrap;html=1;" parent="1" vertex="1">
          <mxGeometry x="1398" y="210" width="120" height="60" as="geometry" />
        </mxCell>
        <mxCell id="c9S6Pdu7FSoXvYtG5_ky-123" value="id_whislist" style="ellipse;whiteSpace=wrap;html=1;" parent="1" vertex="1">
          <mxGeometry x="1448" y="110" width="120" height="40" as="geometry" />
        </mxCell>
        <mxCell id="c9S6Pdu7FSoXvYtG5_ky-124" value="rating" style="ellipse;whiteSpace=wrap;html=1;" parent="1" vertex="1">
          <mxGeometry x="1304" y="320" width="120" height="40" as="geometry" />
        </mxCell>
        <mxCell id="c9S6Pdu7FSoXvYtG5_ky-125" value="comment" style="ellipse;whiteSpace=wrap;html=1;" parent="1" vertex="1">
          <mxGeometry x="1430" y="330" width="120" height="40" as="geometry" />
        </mxCell>
        <mxCell id="c9S6Pdu7FSoXvYtG5_ky-126" value="image" style="ellipse;whiteSpace=wrap;html=1;" parent="1" vertex="1">
          <mxGeometry x="1550" y="300" width="120" height="40" as="geometry" />
        </mxCell>
        <mxCell id="c9S6Pdu7FSoXvYtG5_ky-127" value="" style="endArrow=none;html=1;rounded=0;exitX=0.5;exitY=1;exitDx=0;exitDy=0;entryX=0.5;entryY=0;entryDx=0;entryDy=0;" parent="1" source="c9S6Pdu7FSoXvYtG5_ky-123" target="c9S6Pdu7FSoXvYtG5_ky-122" edge="1">
          <mxGeometry width="50" height="50" relative="1" as="geometry">
            <mxPoint x="1484" y="320" as="sourcePoint" />
            <mxPoint x="1534" y="270" as="targetPoint" />
          </mxGeometry>
        </mxCell>
        <mxCell id="c9S6Pdu7FSoXvYtG5_ky-128" value="" style="endArrow=none;html=1;rounded=0;exitX=0.588;exitY=0.03;exitDx=0;exitDy=0;entryX=0.426;entryY=0.993;entryDx=0;entryDy=0;entryPerimeter=0;exitPerimeter=0;" parent="1" source="c9S6Pdu7FSoXvYtG5_ky-124" target="c9S6Pdu7FSoXvYtG5_ky-122" edge="1">
          <mxGeometry width="50" height="50" relative="1" as="geometry">
            <mxPoint x="1394" y="330" as="sourcePoint" />
            <mxPoint x="1444" y="280" as="targetPoint" />
          </mxGeometry>
        </mxCell>
        <mxCell id="c9S6Pdu7FSoXvYtG5_ky-129" value="" style="endArrow=none;html=1;rounded=0;exitX=0.5;exitY=0;exitDx=0;exitDy=0;entryX=0.75;entryY=1;entryDx=0;entryDy=0;" parent="1" source="c9S6Pdu7FSoXvYtG5_ky-125" target="c9S6Pdu7FSoXvYtG5_ky-122" edge="1">
          <mxGeometry width="50" height="50" relative="1" as="geometry">
            <mxPoint x="1354" y="300" as="sourcePoint" />
            <mxPoint x="1404" y="280" as="targetPoint" />
          </mxGeometry>
        </mxCell>
        <mxCell id="c9S6Pdu7FSoXvYtG5_ky-130" value="" style="endArrow=none;html=1;rounded=0;exitX=0.5;exitY=0;exitDx=0;exitDy=0;entryX=1;entryY=0.75;entryDx=0;entryDy=0;" parent="1" source="c9S6Pdu7FSoXvYtG5_ky-126" target="c9S6Pdu7FSoXvYtG5_ky-122" edge="1">
          <mxGeometry width="50" height="50" relative="1" as="geometry">
            <mxPoint x="1348" y="340" as="sourcePoint" />
            <mxPoint x="1422" y="281" as="targetPoint" />
          </mxGeometry>
        </mxCell>
        <mxCell id="c9S6Pdu7FSoXvYtG5_ky-131" value="created_at" style="ellipse;whiteSpace=wrap;html=1;" parent="1" vertex="1">
          <mxGeometry x="1610" y="230" width="120" height="40" as="geometry" />
        </mxCell>
        <mxCell id="c9S6Pdu7FSoXvYtG5_ky-132" value="" style="endArrow=none;html=1;rounded=0;entryX=1;entryY=0.5;entryDx=0;entryDy=0;" parent="1" source="c9S6Pdu7FSoXvYtG5_ky-131" target="c9S6Pdu7FSoXvYtG5_ky-122" edge="1">
          <mxGeometry width="50" height="50" relative="1" as="geometry">
            <mxPoint x="1474" y="380" as="sourcePoint" />
            <mxPoint x="1468" y="280" as="targetPoint" />
          </mxGeometry>
        </mxCell>
        <mxCell id="c9S6Pdu7FSoXvYtG5_ky-154" value="discount_in_percent" style="ellipse;whiteSpace=wrap;html=1;" parent="1" vertex="1">
          <mxGeometry x="1323" y="730" width="120" height="40" as="geometry" />
        </mxCell>
        <mxCell id="c9S6Pdu7FSoXvYtG5_ky-155" value="discount_in_price" style="ellipse;whiteSpace=wrap;html=1;" parent="1" vertex="1">
          <mxGeometry x="1394" y="660" width="120" height="40" as="geometry" />
        </mxCell>
        <mxCell id="c9S6Pdu7FSoXvYtG5_ky-156" value="" style="endArrow=none;html=1;rounded=0;exitX=0.421;exitY=-0.078;exitDx=0;exitDy=0;entryX=0.687;entryY=1.008;entryDx=0;entryDy=0;entryPerimeter=0;exitPerimeter=0;" parent="1" source="c9S6Pdu7FSoXvYtG5_ky-154" target="c9S6Pdu7FSoXvYtG5_ky-46" edge="1">
          <mxGeometry width="50" height="50" relative="1" as="geometry">
            <mxPoint x="1254" y="750" as="sourcePoint" />
            <mxPoint x="1248" y="650" as="targetPoint" />
          </mxGeometry>
        </mxCell>
        <mxCell id="c9S6Pdu7FSoXvYtG5_ky-157" value="" style="endArrow=none;html=1;rounded=0;entryX=0.989;entryY=0.634;entryDx=0;entryDy=0;entryPerimeter=0;exitX=0;exitY=0;exitDx=0;exitDy=0;" parent="1" source="c9S6Pdu7FSoXvYtG5_ky-155" target="c9S6Pdu7FSoXvYtG5_ky-46" edge="1">
          <mxGeometry width="50" height="50" relative="1" as="geometry">
            <mxPoint x="1414" y="660" as="sourcePoint" />
            <mxPoint x="1270" y="650" as="targetPoint" />
          </mxGeometry>
        </mxCell>
        <mxCell id="c9S6Pdu7FSoXvYtG5_ky-158" value="type_discount" style="ellipse;whiteSpace=wrap;html=1;" parent="1" vertex="1">
          <mxGeometry x="1405" y="585" width="120" height="40" as="geometry" />
        </mxCell>
        <mxCell id="c9S6Pdu7FSoXvYtG5_ky-159" value="" style="endArrow=none;html=1;rounded=0;entryX=0.989;entryY=0.386;entryDx=0;entryDy=0;entryPerimeter=0;exitX=0.039;exitY=0.693;exitDx=0;exitDy=0;exitPerimeter=0;" parent="1" source="c9S6Pdu7FSoXvYtG5_ky-158" target="c9S6Pdu7FSoXvYtG5_ky-46" edge="1">
          <mxGeometry width="50" height="50" relative="1" as="geometry">
            <mxPoint x="1422" y="676" as="sourcePoint" />
            <mxPoint x="1307" y="628" as="targetPoint" />
          </mxGeometry>
        </mxCell>
        <mxCell id="c9S6Pdu7FSoXvYtG5_ky-216" style="edgeStyle=elbowEdgeStyle;rounded=0;orthogonalLoop=1;jettySize=auto;html=1;entryX=0.5;entryY=1;entryDx=0;entryDy=0;" parent="1" source="c9S6Pdu7FSoXvYtG5_ky-160" target="c9S6Pdu7FSoXvYtG5_ky-213" edge="1">
          <mxGeometry relative="1" as="geometry" />
        </mxCell>
        <mxCell id="c9S6Pdu7FSoXvYtG5_ky-233" value="1" style="edgeLabel;html=1;align=center;verticalAlign=middle;resizable=0;points=[];" parent="c9S6Pdu7FSoXvYtG5_ky-216" vertex="1" connectable="0">
          <mxGeometry x="0.6038" relative="1" as="geometry">
            <mxPoint as="offset" />
          </mxGeometry>
        </mxCell>
        <mxCell id="c9S6Pdu7FSoXvYtG5_ky-160" value="payments" style="rounded=0;whiteSpace=wrap;html=1;" parent="1" vertex="1">
          <mxGeometry x="294" y="1770" width="120" height="44" as="geometry" />
        </mxCell>
        <mxCell id="c9S6Pdu7FSoXvYtG5_ky-161" value="id_payment" style="ellipse;whiteSpace=wrap;html=1;" parent="1" vertex="1">
          <mxGeometry x="480" y="1754" width="120" height="40" as="geometry" />
        </mxCell>
        <mxCell id="c9S6Pdu7FSoXvYtG5_ky-171" value="memiliki" style="rhombus;whiteSpace=wrap;html=1;" parent="1" vertex="1">
          <mxGeometry x="880" y="-220" width="150" height="80" as="geometry" />
        </mxCell>
        <mxCell id="c9S6Pdu7FSoXvYtG5_ky-175" value="memiliki" style="rhombus;whiteSpace=wrap;html=1;" parent="1" vertex="1">
          <mxGeometry x="730" y="480" width="160" height="80" as="geometry" />
        </mxCell>
        <mxCell id="c9S6Pdu7FSoXvYtG5_ky-179" value="memiliki" style="rhombus;whiteSpace=wrap;html=1;" parent="1" vertex="1">
          <mxGeometry x="160" y="400" width="180" height="80" as="geometry" />
        </mxCell>
        <mxCell id="c9S6Pdu7FSoXvYtG5_ky-183" value="memiliki" style="rhombus;whiteSpace=wrap;html=1;" parent="1" vertex="1">
          <mxGeometry x="370" y="810" width="180" height="80" as="geometry" />
        </mxCell>
        <mxCell id="c9S6Pdu7FSoXvYtG5_ky-187" value="memmiliki" style="rhombus;whiteSpace=wrap;html=1;" parent="1" vertex="1">
          <mxGeometry y="650" width="130" height="80" as="geometry" />
        </mxCell>
        <mxCell id="c9S6Pdu7FSoXvYtG5_ky-190" style="edgeStyle=orthogonalEdgeStyle;rounded=0;orthogonalLoop=1;jettySize=auto;html=1;exitX=0;exitY=0.75;exitDx=0;exitDy=0;curved=1;entryX=0.5;entryY=0;entryDx=0;entryDy=0;" parent="1" source="c9S6Pdu7FSoXvYtG5_ky-1" target="c9S6Pdu7FSoXvYtG5_ky-240" edge="1">
          <mxGeometry relative="1" as="geometry">
            <mxPoint x="-70" y="370" as="targetPoint" />
            <Array as="points">
              <mxPoint x="414" y="330" />
              <mxPoint x="20" y="330" />
            </Array>
          </mxGeometry>
        </mxCell>
        <mxCell id="c9S6Pdu7FSoXvYtG5_ky-242" value="1" style="edgeLabel;html=1;align=center;verticalAlign=middle;resizable=0;points=[];fontSize=15;" parent="c9S6Pdu7FSoXvYtG5_ky-190" vertex="1" connectable="0">
          <mxGeometry x="0.8547" y="16" relative="1" as="geometry">
            <mxPoint x="-16" y="18" as="offset" />
          </mxGeometry>
        </mxCell>
        <mxCell id="c9S6Pdu7FSoXvYtG5_ky-192" value="memiliki" style="rhombus;whiteSpace=wrap;html=1;" parent="1" vertex="1">
          <mxGeometry x="770" y="760" width="160" height="80" as="geometry" />
        </mxCell>
        <mxCell id="c9S6Pdu7FSoXvYtG5_ky-193" style="edgeStyle=orthogonalEdgeStyle;rounded=0;orthogonalLoop=1;jettySize=auto;html=1;exitX=1;exitY=1;exitDx=0;exitDy=0;entryX=0.5;entryY=0;entryDx=0;entryDy=0;curved=1;" parent="1" source="c9S6Pdu7FSoXvYtG5_ky-31" target="c9S6Pdu7FSoXvYtG5_ky-192" edge="1">
          <mxGeometry relative="1" as="geometry" />
        </mxCell>
        <mxCell id="c9S6Pdu7FSoXvYtG5_ky-228" value="M" style="edgeLabel;html=1;align=center;verticalAlign=middle;resizable=0;points=[];" parent="c9S6Pdu7FSoXvYtG5_ky-193" vertex="1" connectable="0">
          <mxGeometry x="0.8614" y="-14" relative="1" as="geometry">
            <mxPoint as="offset" />
          </mxGeometry>
        </mxCell>
        <mxCell id="c9S6Pdu7FSoXvYtG5_ky-195" value="memiliki" style="rhombus;whiteSpace=wrap;html=1;" parent="1" vertex="1">
          <mxGeometry x="650" y="1169" width="150" height="80" as="geometry" />
        </mxCell>
        <mxCell id="c9S6Pdu7FSoXvYtG5_ky-198" style="edgeStyle=orthogonalEdgeStyle;rounded=0;orthogonalLoop=1;jettySize=auto;html=1;exitX=0;exitY=0.5;exitDx=0;exitDy=0;entryX=0.5;entryY=0;entryDx=0;entryDy=0;" parent="1" source="c9S6Pdu7FSoXvYtG5_ky-1" target="c9S6Pdu7FSoXvYtG5_ky-251" edge="1">
          <mxGeometry relative="1" as="geometry">
            <mxPoint x="-380" y="800" as="targetPoint" />
            <Array as="points">
              <mxPoint x="414" y="230" />
              <mxPoint x="-275" y="230" />
            </Array>
          </mxGeometry>
        </mxCell>
        <mxCell id="c9S6Pdu7FSoXvYtG5_ky-255" value="1" style="edgeLabel;html=1;align=center;verticalAlign=middle;resizable=0;points=[];fontSize=15;" parent="c9S6Pdu7FSoXvYtG5_ky-198" vertex="1" connectable="0">
          <mxGeometry x="0.9495" y="-1" relative="1" as="geometry">
            <mxPoint as="offset" />
          </mxGeometry>
        </mxCell>
        <mxCell id="c9S6Pdu7FSoXvYtG5_ky-200" value="memiliki" style="rhombus;whiteSpace=wrap;html=1;" parent="1" vertex="1">
          <mxGeometry x="970" y="80" width="154" height="80" as="geometry" />
        </mxCell>
        <mxCell id="c9S6Pdu7FSoXvYtG5_ky-201" value="memiliki" style="rhombus;whiteSpace=wrap;html=1;" parent="1" vertex="1">
          <mxGeometry x="1024" y="240" width="154" height="80" as="geometry" />
        </mxCell>
        <mxCell id="c9S6Pdu7FSoXvYtG5_ky-203" style="edgeStyle=orthogonalEdgeStyle;rounded=0;orthogonalLoop=1;jettySize=auto;html=1;exitX=0.25;exitY=0;exitDx=0;exitDy=0;" parent="1" source="c9S6Pdu7FSoXvYtG5_ky-122" target="c9S6Pdu7FSoXvYtG5_ky-200" edge="1">
          <mxGeometry relative="1" as="geometry">
            <mxPoint x="1180" y="120" as="targetPoint" />
            <Array as="points">
              <mxPoint x="1420" y="210" />
              <mxPoint x="1420" y="180" />
              <mxPoint x="1250" y="180" />
              <mxPoint x="1250" y="120" />
            </Array>
          </mxGeometry>
        </mxCell>
        <mxCell id="c9S6Pdu7FSoXvYtG5_ky-223" value="M" style="edgeLabel;html=1;align=center;verticalAlign=middle;resizable=0;points=[];fontSize=14;" parent="c9S6Pdu7FSoXvYtG5_ky-203" vertex="1" connectable="0">
          <mxGeometry x="0.8012" y="-5" relative="1" as="geometry">
            <mxPoint x="-13" y="3" as="offset" />
          </mxGeometry>
        </mxCell>
        <mxCell id="c9S6Pdu7FSoXvYtG5_ky-207" value="memiliki" style="rhombus;whiteSpace=wrap;html=1;" parent="1" vertex="1">
          <mxGeometry x="1334" y="410" width="146" height="80" as="geometry" />
        </mxCell>
        <mxCell id="c9S6Pdu7FSoXvYtG5_ky-210" value="" style="endArrow=none;html=1;rounded=0;exitX=1;exitY=0.25;exitDx=0;exitDy=0;entryX=0;entryY=0.5;entryDx=0;entryDy=0;" parent="1" source="c9S6Pdu7FSoXvYtG5_ky-160" edge="1">
          <mxGeometry width="50" height="50" relative="1" as="geometry">
            <mxPoint x="496" y="1734" as="sourcePoint" />
            <mxPoint x="476" y="1774" as="targetPoint" />
          </mxGeometry>
        </mxCell>
        <mxCell id="c9S6Pdu7FSoXvYtG5_ky-211" value="name" style="ellipse;whiteSpace=wrap;html=1;" parent="1" vertex="1">
          <mxGeometry x="460" y="1814" width="120" height="40" as="geometry" />
        </mxCell>
        <mxCell id="c9S6Pdu7FSoXvYtG5_ky-212" value="" style="endArrow=none;html=1;rounded=0;exitX=1;exitY=0.75;exitDx=0;exitDy=0;entryX=0;entryY=0.5;entryDx=0;entryDy=0;" parent="1" source="c9S6Pdu7FSoXvYtG5_ky-160" target="c9S6Pdu7FSoXvYtG5_ky-211" edge="1">
          <mxGeometry width="50" height="50" relative="1" as="geometry">
            <mxPoint x="410" y="1779" as="sourcePoint" />
            <mxPoint x="486" y="1784" as="targetPoint" />
          </mxGeometry>
        </mxCell>
        <mxCell id="c9S6Pdu7FSoXvYtG5_ky-213" value="dibayar" style="rhombus;whiteSpace=wrap;html=1;" parent="1" vertex="1">
          <mxGeometry x="264" y="1560" width="180" height="80" as="geometry" />
        </mxCell>
        <mxCell id="c9S6Pdu7FSoXvYtG5_ky-217" value="memakai" style="rhombus;whiteSpace=wrap;html=1;" parent="1" vertex="1">
          <mxGeometry x="1274" y="1490" width="190" height="80" as="geometry" />
        </mxCell>
        <mxCell id="c9S6Pdu7FSoXvYtG5_ky-240" value="memiliki" style="rhombus;whiteSpace=wrap;html=1;" parent="1" vertex="1">
          <mxGeometry x="-50" y="390" width="140" height="80" as="geometry" />
        </mxCell>
        <mxCell id="c9S6Pdu7FSoXvYtG5_ky-251" value="memiliki" style="rhombus;whiteSpace=wrap;html=1;" parent="1" vertex="1">
          <mxGeometry x="-340" y="860" width="130" height="80" as="geometry" />
        </mxCell>
        <mxCell id="ewk0nNfDtO_8FRJ2F95V-1" value="name" style="ellipse;whiteSpace=wrap;html=1;" parent="1" vertex="1">
          <mxGeometry x="1500" y="-190" width="120" height="40" as="geometry" />
        </mxCell>
        <mxCell id="ewk0nNfDtO_8FRJ2F95V-2" value="" style="endArrow=none;html=1;rounded=0;exitX=1;exitY=0;exitDx=0;exitDy=0;entryX=0;entryY=0.5;entryDx=0;entryDy=0;" parent="1" source="c9S6Pdu7FSoXvYtG5_ky-16" target="ewk0nNfDtO_8FRJ2F95V-1" edge="1">
          <mxGeometry width="50" height="50" relative="1" as="geometry">
            <mxPoint x="1480" y="-140" as="sourcePoint" />
            <mxPoint x="1530" y="-190" as="targetPoint" />
          </mxGeometry>
        </mxCell>
        <mxCell id="ElCr1S3Lw3JvdqLemUjQ-1" value="order_status" style="ellipse;whiteSpace=wrap;html=1;" vertex="1" parent="1">
          <mxGeometry x="420" y="1440" width="120" height="40" as="geometry" />
        </mxCell>
        <mxCell id="ElCr1S3Lw3JvdqLemUjQ-3" value="" style="endArrow=none;html=1;rounded=0;exitX=0;exitY=0.5;exitDx=0;exitDy=0;entryX=0.75;entryY=1;entryDx=0;entryDy=0;" edge="1" parent="1" source="ElCr1S3Lw3JvdqLemUjQ-1" target="c9S6Pdu7FSoXvYtG5_ky-79">
          <mxGeometry width="50" height="50" relative="1" as="geometry">
            <mxPoint x="660" y="1510" as="sourcePoint" />
            <mxPoint x="710" y="1460" as="targetPoint" />
          </mxGeometry>
        </mxCell>
      </root>
    </mxGraphModel>
  </diagram>
</mxfile>
